<svg width="166" height="264" viewBox="0 0 166 264" fill="none" xmlns="http://www.w3.org/2000/svg">
<g filter="url(#filter0_d_26_1126)">
<rect x="132" y="256" width="99" height="193" rx="49.5" transform="rotate(180 132 256)" fill="#EA0F0F"/>
</g>
<g filter="url(#filter1_d_26_1126)">
<path d="M106.839 165.215L125.902 175.105L111.65 182.015L101.753 176.289L106.839 165.215Z" fill="#FFB800"/>
<path d="M111.804 170.862C142.434 175.365 123.938 188.224 113.455 186.158C100.998 182.2 97.0706 181.111 94.0756 174.689C84.993 161.583 81.514 139.709 86.4041 136.528C91.2941 133.347 82.1252 156.715 111.804 170.862Z" fill="#FFB800"/>
<path d="M58.5453 165.215L39.4806 175.105L53.7338 182.015L63.6312 176.289L58.5453 165.215Z" fill="#FFB800"/>
<path d="M53.5794 170.862C22.9478 175.365 41.4451 188.224 51.9286 186.158C64.3868 182.2 68.314 181.111 71.3092 174.689C80.3924 161.583 83.8716 139.709 78.9812 136.528C74.0909 133.347 83.2603 156.715 53.5794 170.862Z" fill="#FFB800"/>
<rect width="8.6487" height="0.96114" transform="matrix(-0.959541 0.281568 0.298394 0.954443 57.29 169.582)" fill="#FFB800"/>
<ellipse cx="83.1462" cy="31.3006" rx="30.4556" ry="31.3006" fill="#2B2B2B"/>
<ellipse cx="83.1638" cy="113.159" rx="46.5024" ry="65.0152" fill="#2B2B2B"/>
<path d="M26.4869 104.647L7.42224 114.537L21.6754 121.447L31.5728 115.721L26.4869 104.647Z" fill="#2B2B2B"/>
<path d="M62.2154 96.842L46.8135 73.1164L21.3631 112.07L34.626 119.874L62.2154 96.842Z" fill="#2B2B2B"/>
<path d="M21.5209 110.294C-9.11067 114.797 9.3866 127.656 19.8702 125.59C32.3283 121.632 36.2556 120.543 39.2507 114.121C48.3339 101.015 51.8131 79.1411 46.9227 75.9599C42.0324 72.7787 51.2018 96.1473 21.5209 110.294Z" fill="#2B2B2B"/>
<path d="M139.514 106.2L158.578 116.09L144.326 123L134.429 117.274L139.514 106.2Z" fill="#2B2B2B"/>
<path d="M103.788 98.395L119.189 74.6694L144.638 113.623L131.376 121.427L103.788 98.395Z" fill="#2B2B2B"/>
<path d="M144.48 111.847C175.11 116.35 156.614 129.209 146.131 127.143C133.673 123.185 129.746 122.096 126.751 115.674C117.669 102.568 114.19 80.6942 119.08 77.5129C123.97 74.3317 114.801 97.7003 144.48 111.847Z" fill="#2B2B2B"/>
<rect width="8.64823" height="0.961134" transform="matrix(0.959537 0.281584 -0.298378 0.954448 140.77 110.567)" fill="#2B2B2B"/>
<path d="M77.4565 122.612H62L62 113.39H103.29V122.612H87.8338H87.7245V122.711V141.452H77.5658V122.711V122.612H77.4565ZM103.29 89.7408C103.29 100.091 94.0472 108.482 82.6452 108.482C71.2432 108.482 62 100.091 62 89.7408C62 79.3906 71.2432 71 82.6452 71C94.0472 71 103.29 79.3906 103.29 89.7408ZM82.6452 99.26C88.4367 99.26 93.1316 94.9982 93.1316 89.7408C93.1316 84.4835 88.4367 80.2217 82.6452 80.2217C76.8537 80.2217 72.1588 84.4835 72.1588 89.7408C72.1588 94.9982 76.8537 99.26 82.6452 99.26Z" fill="#F5F5F5" stroke="#2B2B2B"/>
</g>
<defs>
<filter id="filter0_d_26_1126" x="29" y="63" width="107" height="201" filterUnits="userSpaceOnUse" color-interpolation-filters="sRGB">
<feFlood flood-opacity="0" result="BackgroundImageFix"/>
<feColorMatrix in="SourceAlpha" type="matrix" values="0 0 0 0 0 0 0 0 0 0 0 0 0 0 0 0 0 0 127 0" result="hardAlpha"/>
<feOffset dy="4"/>
<feGaussianBlur stdDeviation="2"/>
<feComposite in2="hardAlpha" operator="out"/>
<feColorMatrix type="matrix" values="0 0 0 0 0 0 0 0 0 0 0 0 0 0 0 0 0 0 0.25 0"/>
<feBlend mode="normal" in2="BackgroundImageFix" result="effect1_dropShadow_26_1126"/>
<feBlend mode="normal" in="SourceGraphic" in2="effect1_dropShadow_26_1126" result="shape"/>
</filter>
<filter id="filter1_d_26_1126" x="-1" y="0" width="168" height="203" filterUnits="userSpaceOnUse" color-interpolation-filters="sRGB">
<feFlood flood-opacity="0" result="BackgroundImageFix"/>
<feColorMatrix in="SourceAlpha" type="matrix" values="0 0 0 0 0 0 0 0 0 0 0 0 0 0 0 0 0 0 127 0" result="hardAlpha"/>
<feOffset dy="4"/>
<feGaussianBlur stdDeviation="2"/>
<feComposite in2="hardAlpha" operator="out"/>
<feColorMatrix type="matrix" values="0 0 0 0 0 0 0 0 0 0 0 0 0 0 0 0 0 0 0.25 0"/>
<feBlend mode="normal" in2="BackgroundImageFix" result="effect1_dropShadow_26_1126"/>
<feBlend mode="normal" in="SourceGraphic" in2="effect1_dropShadow_26_1126" result="shape"/>
</filter>
</defs>
</svg>
